<?xml version="1.0" encoding="UTF-8" standalone="no"?>
<svg width="892px" height="502px" viewBox="0 0 892 502" version="1.1" xmlns="http://www.w3.org/2000/svg" xmlns:xlink="http://www.w3.org/1999/xlink">
    <!-- Generator: Sketch 41 (35326) - http://www.bohemiancoding.com/sketch -->
    <title>brk</title>
    <desc>Created with Sketch.</desc>
    <defs>
        <rect id="path-1" x="0" y="0" width="892" height="502"></rect>
        <mask id="mask-2" maskContentUnits="userSpaceOnUse" maskUnits="objectBoundingBox" x="0" y="0" width="892" height="502" fill="white">
            <use xlink:href="#path-1"></use>
        </mask>
    </defs>
    <g id="Page-1" stroke="none" stroke-width="1" fill="none" fill-rule="evenodd">
        <g id="pijlen">
            <g id="brk">
                <g id="background" stroke="#979797" stroke-width="2">
                    <use id="Rectangle" mask="url(#mask-2)" xlink:href="#path-1"></use>
                </g>
                <path d="M728,39.03125 L616,39.0194092" id="x" stroke="#01689B" stroke-width="4"></path>
                <path id="x-decoration-1" d="M728,39.03125 L717.199683,42.0301082 L717.200317,36.0301082 L728,39.03125 Z" stroke="#01689B" stroke-width="4"></path>
                <polyline id="Line" stroke="#01689B" stroke-width="4" points="656 150 656 184 736 184"></polyline>
                <path id="Line-decoration-1" d="M656,150 L659,160.8 L653,160.8 L656,150 Z" stroke="#01689B" stroke-width="4"></path>
                <path d="M570,171.03125 L570,120" id="x" stroke="#01689B" stroke-width="4"></path>
                <path id="x-decoration-1" d="M570,171.03125 L567,160.23125 L573,160.23125 L570,171.03125 Z" stroke="#01689B" stroke-width="4"></path>
                <polyline id="Line" stroke="#01689B" stroke-width="4" points="480 150 480 215.237641 200.435902 215.237641 200.435902 424"></polyline>
                <path id="Line-decoration-1" d="M480,150 L483,160.8 L477,160.8 L480,150 Z" stroke="#01689B" stroke-width="4"></path>
                <polyline id="Line" stroke="#01689B" stroke-width="4" points="466 150 466 254.237641 424 254.237641 424 428"></polyline>
                <path id="Line-decoration-1" d="M466,150 L469,160.8 L463,160.8 L466,150 Z" stroke="#01689B" stroke-width="4"></path>
                <polyline id="Line" stroke="#01689B" stroke-width="4" points="466 150 466 194.237641 56 194.237641 56 428"></polyline>
                <path id="Line-decoration-1" d="M466,150 L469,160.8 L463,160.8 L466,150 Z" stroke="#01689B" stroke-width="4"></path>
                <polyline id="Line" stroke="#01689B" stroke-width="4" transform="translate(682.000000, 220.000000) scale(-1, 1) translate(-682.000000, -220.000000) " points="694 58 670 58 670 382"></polyline>
                <path id="Line-decoration-1" d="M694,58 L683.2,61 L683.2,55 L694,58 Z" stroke="#01689B" stroke-width="4"></path>
            </g>
        </g>
    </g>
</svg>