<?xml version="1.0" encoding="UTF-8" standalone="no"?>
<svg width="892px" height="502px" viewBox="0 0 892 502" version="1.1" xmlns="http://www.w3.org/2000/svg" xmlns:xlink="http://www.w3.org/1999/xlink">
    <!-- Generator: Sketch 41.1 (35376) - http://www.bohemiancoding.com/sketch -->
    <title>brp-ni</title>
    <desc>Created with Sketch.</desc>
    <defs></defs>
    <g id="pijlen" stroke="none" stroke-width="1" fill="none" fill-rule="evenodd">
        <g id="pijlen-blok">
            <g id="brp-ni">
                <g id="background">
                    <rect id="Rectangle" fill-opacity="0.5" fill="#D8D8D8" opacity="0.0566697761" x="0" y="0" width="892" height="502"></rect>
                    <g id="alle-pijlen" opacity="0.0249533582" transform="translate(55.000000, 39.000000)" stroke-width="1" stroke="#CCE0F1">
                        <g id="Group" transform="translate(-1.000000, 0.000000)">
                            <polyline id="line" stroke-width="4" points="590.039551 201 632.65332 201 632.65332 344.982178"></polyline>
                            <path id="line-decoration-1" d="M600.839551,204 L590.039551,201 L600.839551,198" stroke-width="4"></path>
                            <polyline id="line" stroke-width="4" points="615 21 655 21 655 373.014648"></polyline>
                            <path id="line-decoration-1" d="M625.8,24 L615,21 L625.8,18" stroke-width="4"></path>
                            <path d="M137,98 L137,389" id="line" stroke-width="4"></path>
                            <path id="line-decoration-1" d="M134,108.8 L137,98 L140,108.8" stroke-width="4"></path>
                            <polyline id="line" stroke-width="4" points="137 98 137 153 1 153 1 389"></polyline>
                            <path id="line-decoration-1" d="M134,108.8 L137,98 L140,108.8" stroke-width="4"></path>
                            <polyline id="line" stroke-width="4" points="321 98 321 201 256.991211 201 256.991211 362.942871 185.083984 362.942871"></polyline>
                            <path id="line-decoration-1" d="M318,108.8 L321,98 L324,108.8" stroke-width="4"></path>
                            <path d="M321,98 L321,395.792969" id="line" stroke-width="4"></path>
                            <path id="line-decoration-1" d="M318,108.8 L321,98 L324,108.8" stroke-width="4"></path>
                            <polyline id="line" stroke-width="4" points="321 98 321 153 1 153 1 389"></polyline>
                            <path id="line-decoration-1" d="M318,108.8 L321,98 L324,108.8" stroke-width="4"></path>
                            <path d="M741,98 L741,172" id="line" stroke-width="4"></path>
                            <path id="line-decoration-1" d="M738,108.8 L741,98 L744,108.8" stroke-width="4"></path>
                            <polyline id="line" stroke-width="4" points="605 98 605 153 696.314453 153"></polyline>
                            <path id="line-decoration-1" d="M602,108.8 L605,98 L608,108.8" stroke-width="4"></path>
                            <polyline id="line" stroke-width="4" points="681 177 655 177 655.267578 344.387695"></polyline>
                            <path id="line-decoration-1" d="M670.2,174 L681,177 L670.2,180" stroke-width="4"></path>
                            <path d="M420.519043,383 L632.65332,383" id="line" stroke-width="4"></path>
                            <path id="line-decoration-1" d="M431.319043,386 L420.519043,383 L431.319043,380" stroke-width="4"></path>
                            <polyline id="line" stroke-width="4" points="137.024414 429 137.024414 459.5 641.283203 459.5 641.283203 422.894531"></polyline>
                            <path id="line-decoration-1" d="M134.024414,439.8 L137.024414,429 L140.024414,439.8" stroke-width="4"></path>
                            <polyline id="line" stroke-width="4" points="681 57 655.267578 57 655.267578 373.711426"></polyline>
                            <path id="line-decoration-1" d="M670.2,54 L681,57 L670.2,60" stroke-width="4"></path>
                            <path d="M681,1 L579,1" id="line" stroke-width="4"></path>
                            <path id="line-decoration-1" d="M670.2,-2 L681,1 L670.2,4" stroke-width="4"></path>
                            <path d="M517,130 L517,69" id="line" stroke-width="4"></path>
                            <path id="line-decoration-1" d="M520,119.2 L517,130 L514,119.2" stroke-width="4"></path>
                            <polyline id="line" stroke-width="4" points="405 98 405 177 137 177 137 389"></polyline>
                            <path id="line-decoration-1" d="M402,108.8 L405,98 L408,108.8" stroke-width="4"></path>
                            <polyline id="line" stroke-width="4" points="425 98 425 153 425 341 397 341"></polyline>
                            <path id="line-decoration-1" d="M422,108.8 L425,98 L428,108.8" stroke-width="4"></path>
                            <polyline id="line" stroke-width="4" points="405 98 405 153 1 153 1 389"></polyline>
                            <path id="line-decoration-1" d="M402,108.8 L405,98 L408,108.8" stroke-width="4"></path>
                            <polyline id="Line" stroke-width="4" points="681 277 425 277 425 341 397 341"></polyline>
                            <path id="Line-decoration-1" d="M670.2,274 L681,277 L670.2,280" stroke-width="4"></path>
                            <polyline id="line" stroke-width="4" points="137.133789 429 137.133789 459.5 641.283203 459.5 641.283203 419.894531"></polyline>
                            <path id="line-decoration-1" d="M134.133789,439.8 L137.133789,429 L140.133789,439.8" stroke-width="4"></path>
                            <path d="M269,384 L137,384" id="line" stroke-width="4"></path>
                            <path id="line-decoration-1" d="M258.2,381 L269,384 L258.2,387" stroke-width="4"></path>
                            <polyline id="line" stroke-width="4" points="450 177 137 177 137 389"></polyline>
                            <path id="line-decoration-1" d="M439.2,174 L450,177 L439.2,180" stroke-width="4"></path>
                            <polyline id="line" stroke-width="4" points="257 98 257 363 137.597168 363"></polyline>
                            <path id="line-decoration-1" d="M254,108.8 L257,98 L260,108.8" stroke-width="4"></path>
                            <path d="M405,98 L405,176.20459" id="line" stroke-width="4"></path>
                            <path id="line-decoration-1" d="M402,108.8 L405,98 L408,108.8" stroke-width="4"></path>
                            <polyline id="line" stroke-width="4" points="54 98 54 177 145 177"></polyline>
                            <path id="line-decoration-1" d="M51,108.8 L54,98 L57,108.8" stroke-width="4"></path>
                            <path d="M137,98 L137.125,389" id="line" stroke-width="4"></path>
                            <path id="line-decoration-1" d="M134.004639,108.801288 L137,98 L140.004639,108.79871" stroke-width="4"></path>
                            <polyline id="line" stroke-width="4" points="321 429 321 446 1 446 1 418.634766"></polyline>
                            <path id="line-decoration-1" d="M318,439.8 L321,429 L324,439.8" stroke-width="4"></path>
                            <path d="M450,153 L17,153" id="line" stroke-width="4"></path>
                            <path id="line-decoration-1" d="M439.2,150 L450,153 L439.2,156" stroke-width="4"></path>
                            <path d="M257,98 L257,153" id="line" stroke-width="4"></path>
                            <path id="line-decoration-1" d="M254,108.8 L257,98 L260,108.8" stroke-width="4"></path>
                            <path d="M405,98 L405,153" id="line" stroke-width="4"></path>
                            <path id="line-decoration-1" d="M402,108.8 L405,98 L408,108.8" stroke-width="4"></path>
                            <polyline id="line" stroke-width="4" points="137 98 137 153 1 153 1 389"></polyline>
                            <path id="line-decoration-1" d="M134,108.8 L137,98 L140,108.8" stroke-width="4"></path>
                            <path d="M1,98 L1,389" id="line" stroke-width="4"></path>
                            <path id="line-decoration-1" d="M-2,108.8 L1,98 L4,108.8" stroke-width="4"></path>
                            <polyline id="line" stroke-width="4" points="681 57 655.267578 57 655.267578 373.808594"></polyline>
                            <path id="line-decoration-1" d="M670.2,54 L681,57 L670.2,60" stroke-width="4"></path>
                            <path d="M741,98 L741,173" id="line" stroke-width="4"></path>
                            <path id="line-decoration-1" d="M738,108.8 L741,98 L744,108.8" stroke-width="4"></path>
                            <path d="M681,0.5 L561,0.5" id="line" stroke-width="4"></path>
                            <path id="line-decoration-1" d="M670.2,-2.5 L681,0.5 L670.2,3.5" stroke-width="4"></path>
                            <polyline id="line" stroke-width="4" points="54 98 54 177 321 177 321 394.648438"></polyline>
                            <path id="line-decoration-1" d="M51,108.8 L54,98 L57,108.8" stroke-width="4"></path>
                            <polyline id="line" stroke-width="4" points="1 98 1 201 137 201 137 389"></polyline>
                            <path id="line-decoration-1" d="M-2,108.8 L1,98 L4,108.8" stroke-width="4"></path>
                            <path d="M1,98 L1.5,393" id="line" stroke-width="4"></path>
                            <path id="line-decoration-1" d="M-1.98169063,108.805069 L1,98 L4.01830075,108.7949" stroke-width="4"></path>
                            <path d="M420.449219,383 L632.65332,383" id="line" stroke-width="4"></path>
                            <path id="line-decoration-1" d="M431.249219,386 L420.449219,383 L431.249219,380" stroke-width="4"></path>
                            <polyline id="line" stroke-width="4" points="1 98 1 201 321 201 321 395.697266"></polyline>
                            <path id="line-decoration-1" d="M-2,108.8 L1,98 L4,108.8" stroke-width="4"></path>
                            <path d="M321,98 L321,396.651855" id="line" stroke-width="4"></path>
                            <path id="line-decoration-1" d="M318,108.8 L321,98 L324,108.8" stroke-width="4"></path>
                            <polyline id="line" stroke-width="4" points="405 98 405 201 321 201 321 395.626953"></polyline>
                            <path id="line-decoration-1" d="M402,108.8 L405,98 L408,108.8" stroke-width="4"></path>
                            <polyline id="line" stroke-width="4" points="450 201 321 201 321 395.179688"></polyline>
                            <path id="line-decoration-1" d="M439.2,198 L450,201 L439.2,204" stroke-width="4"></path>
                            <polyline id="line" stroke-width="4" points="681 277 321 277 321 395.723633"></polyline>
                            <path id="line-decoration-1" d="M670.2,274 L681,277 L670.2,280" stroke-width="4"></path>
                            <polyline id="line" stroke-width="4" points="321 429 321 446 2 446 2 417"></polyline>
                            <path id="line-decoration-1" d="M318,439.8 L321,429 L324,439.8" stroke-width="4"></path>
                            <polyline id="line" stroke-width="4" points="450 153 1 153 1 389"></polyline>
                            <path id="line-decoration-1" d="M439.2,150 L450,153 L439.2,156" stroke-width="4"></path>
                            <polyline id="line" stroke-width="4" points="450 201 321 201 321 395.207031"></polyline>
                            <path id="line-decoration-1" d="M439.2,198 L450,201 L439.2,204" stroke-width="4"></path>
                            <polyline id="line" stroke-width="4" points="450 201 257 201 257 363 185.240723 363"></polyline>
                            <path id="line-decoration-1" d="M439.2,198 L450,201 L439.2,204" stroke-width="4"></path>
                            <path d="M516.5,129 L516.5,69" id="line" stroke-width="4"></path>
                            <path id="line-decoration-1" d="M519.5,118.2 L516.5,129 L513.5,118.2" stroke-width="4"></path>
                            <polyline id="line" stroke-width="4" points="450 177 137 177 137 389"></polyline>
                            <path id="line-decoration-1" d="M439.2,174 L450,177 L439.2,180" stroke-width="4"></path>
                        </g>
                    </g>
                </g>
                <polyline id="line" stroke="#01689B" stroke-width="4" stroke-linecap="square" points="376 468 376 485 56 485 56 457.634766"></polyline>
                <path id="line-decoration-1" d="M373,478.8 L376,468 L379,478.8" stroke="#01689B" stroke-width="4" stroke-linecap="square"></path>
                <path d="M505,192 L72,192" id="line" stroke="#01689B" stroke-width="4" stroke-linecap="square"></path>
                <path id="line-decoration-1" d="M494.2,189 L505,192 L494.2,195" stroke="#01689B" stroke-width="4" stroke-linecap="square"></path>
                <path d="M312,137 L312,192" id="line" stroke="#01689B" stroke-width="4" stroke-linecap="square"></path>
                <path id="line-decoration-1" d="M309,147.8 L312,137 L315,147.8" stroke="#01689B" stroke-width="4" stroke-linecap="square"></path>
                <path d="M460,137 L460,192" id="line" stroke="#01689B" stroke-width="4" stroke-linecap="square"></path>
                <path id="line-decoration-1" d="M457,147.8 L460,137 L463,147.8" stroke="#01689B" stroke-width="4" stroke-linecap="square"></path>
                <polyline id="line" stroke="#01689B" stroke-width="4" stroke-linecap="square" points="192 137 192 192 56 192 56 428"></polyline>
                <path id="line-decoration-1" d="M189,147.8 L192,137 L195,147.8" stroke="#01689B" stroke-width="4" stroke-linecap="square"></path>
                <path d="M56,137 L56,428" id="line" stroke="#01689B" stroke-width="4" stroke-linecap="square"></path>
                <path id="line-decoration-1" d="M53,147.8 L56,137 L59,147.8" stroke="#01689B" stroke-width="4" stroke-linecap="square"></path>
            </g>
        </g>
    </g>
</svg>