<?xml version="1.0" encoding="UTF-8" standalone="no"?>
<svg width="892px" height="502px" viewBox="0 0 892 502" version="1.1" xmlns="http://www.w3.org/2000/svg" xmlns:xlink="http://www.w3.org/1999/xlink">
    <!-- Generator: Sketch 41 (35326) - http://www.bohemiancoding.com/sketch -->
    <title>nhr</title>
    <desc>Created with Sketch.</desc>
    <defs>
        <rect id="path-1" x="0" y="0" width="892" height="502"></rect>
        <mask id="mask-2" maskContentUnits="userSpaceOnUse" maskUnits="objectBoundingBox" x="0" y="0" width="892" height="502" fill="white">
            <use xlink:href="#path-1"></use>
        </mask>
    </defs>
    <g id="Page-1" stroke="none" stroke-width="1" fill="none" fill-rule="evenodd">
        <g id="pijlen">
            <g id="nhr">
                <g id="background" stroke="#979797" stroke-width="2">
                    <use id="Rectangle" mask="url(#mask-2)" xlink:href="#path-1"></use>
                </g>
                <path d="M480,423.03125 L692,423.031553" id="x" stroke="#01689B" stroke-width="4"></path>
                <path id="x-decoration-1" d="M480,423.03125 L490.800004,420.031265 L490.799996,426.031265 L480,423.03125 Z" stroke="#01689B" stroke-width="4"></path>
                <polyline id="from-nhr-to-brv" stroke="#01689B" stroke-width="4" points="87.9100037 150 87.9100037 234.552734 371.886566 234.552734 371.886566 398.900391"></polyline>
                <path id="from-nhr-to-brv-decoration-1" d="M87.9100037,150 L90.9100037,160.8 L84.9100037,160.8 L87.9100037,150 Z" stroke="#01689B" stroke-width="4"></path>
                <polyline id="from-nhr-to-brv" stroke="#01689B" stroke-width="4" points="312 150 312 254.019775 426.031006 254.019775 426.031006 432"></polyline>
                <path id="from-nhr-to-brv-decoration-1" d="M312,150 L315,160.8 L309,160.8 L312,150 Z" stroke="#01689B" stroke-width="4"></path>
                <polyline id="from-nhr-to-brv" stroke="#01689B" stroke-width="4" points="465 150 465 254.019775 426.031006 254.019775 426.031006 432"></polyline>
                <path id="from-nhr-to-brv-decoration-1" d="M465,150 L468,160.8 L462,160.8 L465,150 Z" stroke="#01689B" stroke-width="4"></path>
                <polyline id="from-nhr-to-brv-copy" stroke="#01689B" stroke-width="4" points="496 254.019775 426.031006 254.019775 426.031006 432"></polyline>
                <path id="from-nhr-to-brv-copy-decoration-1" d="M496,254.019775 L485.2,257.019775 L485.2,251.019775 L496,254.019775 Z" stroke="#01689B" stroke-width="4"></path>
                <polyline id="from-nhr-to-brv-copy-2" stroke="#01689B" stroke-width="4" points="722 317.019775 426.031006 317.019775 426.031006 432"></polyline>
                <path id="from-nhr-to-brv-copy-2-decoration-1" d="M722,317.019775 L711.2,320.019775 L711.2,314.019775 L722,317.019775 Z" stroke="#01689B" stroke-width="4"></path>
                <path d="M340,440 L192,439.96875" id="x-copy" stroke="#01689B" stroke-width="4"></path>
                <path id="x-copy-decoration-1" d="M340,440 L329.199367,442.99772 L329.200634,436.99772 L340,440 Z" stroke="#01689B" stroke-width="4"></path>
                <polyline id="x-copy-2" stroke="#01689B" stroke-width="4" points="337.599609 470.999452 56 471 56.6992188 434.359375"></polyline>
                <path id="x-copy-2-decoration-1" d="M337.599609,470.999452 L326.799615,473.999473 L326.799604,467.999473 L337.599609,470.999452 Z" stroke="#01689B" stroke-width="4"></path>
            </g>
        </g>
    </g>
</svg>