<?xml version="1.0" encoding="UTF-8" standalone="no"?>
<svg width="892px" height="502px" viewBox="0 0 892 502" version="1.1" xmlns="http://www.w3.org/2000/svg" xmlns:xlink="http://www.w3.org/1999/xlink">
    <!-- Generator: Sketch 41 (35326) - http://www.bohemiancoding.com/sketch -->
    <title>pijlen</title>
    <desc>Created with Sketch.</desc>
    <defs>
        <rect id="path-1" x="0" y="0" width="892" height="502"></rect>
        <mask id="mask-2" maskContentUnits="userSpaceOnUse" maskUnits="objectBoundingBox" x="0" y="0" width="892" height="502" fill="white">
            <use xlink:href="#path-1"></use>
        </mask>
        <rect id="path-3" x="0" y="0" width="892" height="502"></rect>
        <mask id="mask-4" maskContentUnits="userSpaceOnUse" maskUnits="objectBoundingBox" x="0" y="0" width="892" height="502" fill="white">
            <use xlink:href="#path-3"></use>
        </mask>
        <rect id="path-5" x="0" y="0" width="892" height="502"></rect>
        <mask id="mask-6" maskContentUnits="userSpaceOnUse" maskUnits="objectBoundingBox" x="0" y="0" width="892" height="502" fill="white">
            <use xlink:href="#path-5"></use>
        </mask>
        <rect id="path-7" x="0" y="0" width="892" height="502"></rect>
        <mask id="mask-8" maskContentUnits="userSpaceOnUse" maskUnits="objectBoundingBox" x="0" y="0" width="892" height="502" fill="white">
            <use xlink:href="#path-7"></use>
        </mask>
        <rect id="path-9" x="0" y="0" width="892" height="502"></rect>
        <mask id="mask-10" maskContentUnits="userSpaceOnUse" maskUnits="objectBoundingBox" x="0" y="0" width="892" height="502" fill="white">
            <use xlink:href="#path-9"></use>
        </mask>
        <rect id="path-11" x="0" y="0" width="892" height="502"></rect>
        <mask id="mask-12" maskContentUnits="userSpaceOnUse" maskUnits="objectBoundingBox" x="0" y="0" width="892" height="502" fill="white">
            <use xlink:href="#path-11"></use>
        </mask>
        <rect id="path-13" x="0" y="0" width="892" height="502"></rect>
        <mask id="mask-14" maskContentUnits="userSpaceOnUse" maskUnits="objectBoundingBox" x="0" y="0" width="892" height="502" fill="white">
            <use xlink:href="#path-13"></use>
        </mask>
        <rect id="path-15" x="0" y="0" width="892" height="502"></rect>
        <mask id="mask-16" maskContentUnits="userSpaceOnUse" maskUnits="objectBoundingBox" x="0" y="0" width="892" height="502" fill="white">
            <use xlink:href="#path-15"></use>
        </mask>
        <rect id="path-17" x="0" y="0" width="892" height="502"></rect>
        <mask id="mask-18" maskContentUnits="userSpaceOnUse" maskUnits="objectBoundingBox" x="0" y="0" width="892" height="502" fill="white">
            <use xlink:href="#path-17"></use>
        </mask>
        <rect id="path-19" x="0" y="0" width="892" height="502"></rect>
        <mask id="mask-20" maskContentUnits="userSpaceOnUse" maskUnits="objectBoundingBox" x="0" y="0" width="892" height="502" fill="white">
            <use xlink:href="#path-19"></use>
        </mask>
        <rect id="path-21" x="0" y="0" width="892" height="502"></rect>
        <mask id="mask-22" maskContentUnits="userSpaceOnUse" maskUnits="objectBoundingBox" x="0" y="0" width="892" height="502" fill="white">
            <use xlink:href="#path-21"></use>
        </mask>
        <rect id="path-23" x="0" y="0" width="892" height="502"></rect>
        <mask id="mask-24" maskContentUnits="userSpaceOnUse" maskUnits="objectBoundingBox" x="0" y="0" width="892" height="502" fill="white">
            <use xlink:href="#path-23"></use>
        </mask>
    </defs>
    <g id="Page-1" stroke="none" stroke-width="1" fill="none" fill-rule="evenodd">
        <g id="pijlen">
            <g id="bri">
                <g id="background" stroke="#979797" stroke-width="2">
                    <use id="Rectangle" mask="url(#mask-2)" xlink:href="#path-1"></use>
                </g>
                <path d="M189,150 L189,424" id="line" stroke="#01689B" stroke-width="4"></path>
                <path id="line-decoration-1" d="M189,150 L192,160.8 L186,160.8 L189,150 Z" stroke="#01689B" stroke-width="4"></path>
                <polyline id="line" stroke="#01689B" stroke-width="4" points="312 150 312 251 424 251 424 432"></polyline>
                <path id="line-decoration-1" d="M312,150 L315,160.8 L309,160.8 L312,150 Z" stroke="#01689B" stroke-width="4"></path>
                <polyline id="line" stroke="#01689B" stroke-width="4" points="208 152 208 184 72 184 72 428"></polyline>
                <path id="line-decoration-1" d="M208,152 L211,162.8 L205,162.8 L208,152 Z" stroke="#01689B" stroke-width="4"></path>
            </g>
            <g id="blau">
                <g id="background" stroke="#979797" stroke-width="2">
                    <use id="Rectangle" mask="url(#mask-4)" xlink:href="#path-3"></use>
                </g>
                <polyline id="line" stroke="#01689B" stroke-width="4" points="312 150 312 424 240 424"></polyline>
                <path id="line-decoration-1" d="M312,150 L315,160.8 L309,160.8 L312,150 Z" stroke="#01689B" stroke-width="4"></path>
                <polyline id="line" stroke="#01689B" stroke-width="4" points="312 150 312 251 424 251 424 432"></polyline>
                <path id="line-decoration-1" d="M312,150 L315,160.8 L309,160.8 L312,150 Z" stroke="#01689B" stroke-width="4"></path>
                <polyline id="line" stroke="#01689B" stroke-width="4" points="312 152 312 184 72 184 72 428"></polyline>
                <path id="line-decoration-1" d="M312,152 L315,162.8 L309,162.8 L312,152 Z" stroke="#01689B" stroke-width="4"></path>
            </g>
            <g id="bgt">
                <g id="background" stroke="#979797" stroke-width="2">
                    <use id="Rectangle" mask="url(#mask-6)" xlink:href="#path-5"></use>
                </g>
                <path d="M795,149 L795,211" id="x" stroke="#01689B" stroke-width="4"></path>
                <path id="x-decoration-1" d="M795,149 L798,159.8 L792,159.8 L795,149 Z" stroke="#01689B" stroke-width="4"></path>
                <polyline id="Line" stroke="#01689B" stroke-width="4" points="656 150 656 184 736 184"></polyline>
                <path id="Line-decoration-1" d="M656,150 L659,160.8 L653,160.8 L656,150 Z" stroke="#01689B" stroke-width="4"></path>
                <polyline id="Line" stroke="#01689B" stroke-width="4" points="720 200 684 200 684 368"></polyline>
                <path id="Line-decoration-1" d="M720,200 L709.2,203 L709.2,197 L720,200 Z" stroke="#01689B" stroke-width="4"></path>
            </g>
            <g id="bag">
                <g id="background" stroke="#979797" stroke-width="2">
                    <use id="Rectangle" mask="url(#mask-8)" xlink:href="#path-7"></use>
                </g>
                <path d="M641,235 L694,235" id="x" stroke="#01689B" stroke-width="4"></path>
                <path id="x-decoration-1" d="M641,235 L651.8,232 L651.8,238 L641,235 Z" stroke="#01689B" stroke-width="4"></path>
                <path d="M480,423.03125 L692,423.031553" id="x" stroke="#01689B" stroke-width="4"></path>
                <path id="x-decoration-1" d="M480,423.03125 L490.800004,420.031265 L490.799996,426.031265 L480,423.03125 Z" stroke="#01689B" stroke-width="4"></path>
                <polyline id="Line" stroke="#01689B" stroke-width="4" points="189.5 468.5 189.5 495.5 696.283203 495.5 696.283203 458.894531"></polyline>
                <path id="Line-decoration-1" d="M189.5,468.5 L192.5,479.3 L186.5,479.3 L189.5,468.5 Z" stroke="#01689B" stroke-width="4"></path>
                <polyline id="Line" stroke="#01689B" stroke-width="4" points="728 128 704 128 704 444"></polyline>
                <path id="Line-decoration-1" d="M728,128 L717.2,131 L717.2,125 L728,128 Z" stroke="#01689B" stroke-width="4"></path>
                <path d="M723,199 L696,199" id="x" stroke="#01689B" stroke-width="4"></path>
                <path id="x-decoration-1" d="M723,199 L712.2,202 L712.2,196 L723,199 Z" stroke="#01689B" stroke-width="4"></path>
                <polyline id="Line" stroke="#01689B" stroke-width="4" transform="translate(682.000000, 220.000000) scale(-1, 1) translate(-682.000000, -220.000000) " points="694 58 670 58 670 382"></polyline>
                <path id="Line-decoration-1" d="M694,58 L683.2,61 L683.2,55 L694,58 Z" stroke="#01689B" stroke-width="4"></path>
            </g>
            <g id="brk">
                <g id="background" stroke="#979797" stroke-width="2">
                    <use id="Rectangle" mask="url(#mask-10)" xlink:href="#path-9"></use>
                </g>
                <path d="M728,39.03125 L616,39.0194092" id="x" stroke="#01689B" stroke-width="4"></path>
                <path id="x-decoration-1" d="M728,39.03125 L717.199683,42.0301082 L717.200317,36.0301082 L728,39.03125 Z" stroke="#01689B" stroke-width="4"></path>
                <polyline id="Line" stroke="#01689B" stroke-width="4" points="656 150 656 184 736 184"></polyline>
                <path id="Line-decoration-1" d="M656,150 L659,160.8 L653,160.8 L656,150 Z" stroke="#01689B" stroke-width="4"></path>
                <path d="M570,171.03125 L570,120" id="x" stroke="#01689B" stroke-width="4"></path>
                <path id="x-decoration-1" d="M570,171.03125 L567,160.23125 L573,160.23125 L570,171.03125 Z" stroke="#01689B" stroke-width="4"></path>
                <polyline id="Line" stroke="#01689B" stroke-width="4" points="480 150 480 215.237641 200.435902 215.237641 200.435902 424"></polyline>
                <path id="Line-decoration-1" d="M480,150 L483,160.8 L477,160.8 L480,150 Z" stroke="#01689B" stroke-width="4"></path>
                <polyline id="Line" stroke="#01689B" stroke-width="4" points="466 150 466 254.237641 424 254.237641 424 428"></polyline>
                <path id="Line-decoration-1" d="M466,150 L469,160.8 L463,160.8 L466,150 Z" stroke="#01689B" stroke-width="4"></path>
                <polyline id="Line" stroke="#01689B" stroke-width="4" points="466 150 466 194.237641 56 194.237641 56 428"></polyline>
                <path id="Line-decoration-1" d="M466,150 L469,160.8 L463,160.8 L466,150 Z" stroke="#01689B" stroke-width="4"></path>
                <polyline id="Line" stroke="#01689B" stroke-width="4" transform="translate(682.000000, 220.000000) scale(-1, 1) translate(-682.000000, -220.000000) " points="694 58 670 58 670 382"></polyline>
                <path id="Line-decoration-1" d="M694,58 L683.2,61 L683.2,55 L694,58 Z" stroke="#01689B" stroke-width="4"></path>
            </g>
            <g id="bro">
                <g id="background" stroke="#979797" stroke-width="2">
                    <use id="Rectangle" mask="url(#mask-12)" xlink:href="#path-11"></use>
                </g>
                <polyline id="Line" stroke="#01689B" stroke-width="4" points="720 316 424 316 424 428"></polyline>
                <path id="Line-decoration-1" d="M720,316 L709.2,319 L709.2,313 L720,316 Z" stroke="#01689B" stroke-width="4"></path>
            </g>
            <g id="brp-i">
                <g id="background" stroke="#979797" stroke-width="2">
                    <use id="Rectangle" mask="url(#mask-14)" xlink:href="#path-13"></use>
                </g>
                <polyline id="Line" stroke="#01689B" stroke-width="4" points="189.5 468.5 189.5 495.5 696.283203 495.5 696.283203 458.894531"></polyline>
                <path id="Line-decoration-1" d="M189.5,468.5 L192.5,479.3 L186.5,479.3 L189.5,468.5 Z" stroke="#01689B" stroke-width="4"></path>
                <path d="M340,440 L192,439.96875" id="x" stroke="#01689B" stroke-width="4"></path>
                <path id="x-decoration-1" d="M340,440 L329.199367,442.99772 L329.200634,436.99772 L340,440 Z" stroke="#01689B" stroke-width="4"></path>
                <polyline id="Line" stroke="#01689B" stroke-width="4" points="500 215.237641 190.007324 215.237641 190.007324 424"></polyline>
                <path id="Line-decoration-1" d="M500,215.237641 L489.2,218.237641 L489.2,212.237641 L500,215.237641 Z" stroke="#01689B" stroke-width="4"></path>
                <polyline id="line" stroke="#01689B" stroke-width="4" points="312 150 312 424 240 424"></polyline>
                <path id="line-decoration-1" d="M312,150 L315,160.8 L309,160.8 L312,150 Z" stroke="#01689B" stroke-width="4"></path>
                <path d="M481,150 L481,215.20459" id="line" stroke="#01689B" stroke-width="4"></path>
                <path id="line-decoration-1" d="M481,150 L484,160.8 L478,160.8 L481,150 Z" stroke="#01689B" stroke-width="4"></path>
                <polyline id="line" stroke="#01689B" stroke-width="4" points="109 150 109 215.20459 216 215.20459"></polyline>
                <path id="line-decoration-1" d="M109,150 L112,160.8 L106,160.8 L109,150 Z" stroke="#01689B" stroke-width="4"></path>
                <path d="M190.026093,150 L190.026093,428" id="x" stroke="#01689B" stroke-width="4"></path>
                <path id="x-decoration-1" d="M190.026093,150 L193.026093,160.8 L187.026093,160.8 L190.026093,150 Z" stroke="#01689B" stroke-width="4"></path>
            </g>
            <g id="brp-ni">
                <g id="background" stroke="#979797" stroke-width="2">
                    <use id="Rectangle" mask="url(#mask-16)" xlink:href="#path-15"></use>
                </g>
                <path d="M337.599609,470.999452 L56,471" id="x" stroke="#01689B" stroke-width="4"></path>
                <path id="x-decoration-1" d="M337.599609,470.999452 L326.799615,473.999473 L326.799604,467.999473 L337.599609,470.999452 Z" stroke="#01689B" stroke-width="4"></path>
                <path d="M500,195.237641 L56,195.237641" id="Line" stroke="#01689B" stroke-width="4"></path>
                <path id="Line-decoration-1" d="M500,195.237641 L489.2,198.237641 L489.2,192.237641 L500,195.237641 Z" stroke="#01689B" stroke-width="4"></path>
                <path d="M312,150 L312,195" id="line" stroke="#01689B" stroke-width="4"></path>
                <path id="line-decoration-1" d="M312,150 L315,160.8 L309,160.8 L312,150 Z" stroke="#01689B" stroke-width="4"></path>
                <path d="M466,150 L466,195.20459" id="line" stroke="#01689B" stroke-width="4"></path>
                <path id="line-decoration-1" d="M466,150 L469,160.8 L463,160.8 L466,150 Z" stroke="#01689B" stroke-width="4"></path>
                <polyline id="from-nhr-to-brv" stroke="#01689B" stroke-width="4" points="208 152 208 184 72 184 72 428"></polyline>
                <path id="from-nhr-to-brv-decoration-1" d="M208,152 L211,162.8 L205,162.8 L208,152 Z" stroke="#01689B" stroke-width="4"></path>
                <path d="M56.7727051,150 L56.6777344,472.736328" id="from-brp-to-brv" stroke="#01689B" stroke-width="4"></path>
                <path id="from-brp-to-brv-decoration-1" d="M56.7727051,150 L59.7695269,160.800882 L53.7695271,160.799117 L56.7727051,150 Z" stroke="#01689B" stroke-width="4"></path>
            </g>
            <g id="brt">
                <g id="background" stroke="#979797" stroke-width="2">
                    <use id="Rectangle" mask="url(#mask-18)" xlink:href="#path-17"></use>
                </g>
                <polyline id="Line" stroke="#01689B" stroke-width="4" points="728 128 704 128 704 444"></polyline>
                <path id="Line-decoration-1" d="M728,128 L717.2,131 L717.2,125 L728,128 Z" stroke="#01689B" stroke-width="4"></path>
                <path d="M795,149 L795,211" id="x" stroke="#01689B" stroke-width="4"></path>
                <path id="x-decoration-1" d="M795,149 L798,159.8 L792,159.8 L795,149 Z" stroke="#01689B" stroke-width="4"></path>
                <path d="M728,39.03125 L616,39.0194092" id="x" stroke="#01689B" stroke-width="4"></path>
                <path id="x-decoration-1" d="M728,39.03125 L717.199683,42.0301082 L717.200317,36.0301082 L728,39.03125 Z" stroke="#01689B" stroke-width="4"></path>
            </g>
            <g id="brv">
                <g id="background" stroke="#979797" stroke-width="2">
                    <use id="Rectangle" mask="url(#mask-20)" xlink:href="#path-19"></use>
                </g>
                <polyline id="from-nhr-to-brv" stroke="#01689B" stroke-width="4" points="87.9100037 150 87.9100037 234.552734 371.886566 234.552734 371.886566 398.900391"></polyline>
                <path id="from-nhr-to-brv-decoration-1" d="M87.9100037,150 L90.9100037,160.8 L84.9100037,160.8 L87.9100037,150 Z" stroke="#01689B" stroke-width="4"></path>
                <polyline id="Line" stroke="#01689B" stroke-width="4" points="108.5 149.5 108.5 215.5 200.435902 215.237641 200.435902 424"></polyline>
                <path id="Line-decoration-1" d="M108.5,149.5 L111.5,160.3 L105.5,160.3 L108.5,149.5 Z" stroke="#01689B" stroke-width="4"></path>
                <path d="M56.7727051,150 L56.6777344,472.736328" id="from-brp-to-brv" stroke="#01689B" stroke-width="4"></path>
                <path id="from-brp-to-brv-decoration-1" d="M56.7727051,150 L59.7695269,160.800882 L53.7695271,160.799117 L56.7727051,150 Z" stroke="#01689B" stroke-width="4"></path>
            </g>
            <g id="nhr">
                <g id="background" stroke="#979797" stroke-width="2">
                    <use id="Rectangle" mask="url(#mask-22)" xlink:href="#path-21"></use>
                </g>
                <path d="M480,423.03125 L692,423.031553" id="x" stroke="#01689B" stroke-width="4"></path>
                <path id="x-decoration-1" d="M480,423.03125 L490.800004,420.031265 L490.799996,426.031265 L480,423.03125 Z" stroke="#01689B" stroke-width="4"></path>
                <polyline id="from-nhr-to-brv" stroke="#01689B" stroke-width="4" points="87.9100037 150 87.9100037 234.552734 371.886566 234.552734 371.886566 398.900391"></polyline>
                <path id="from-nhr-to-brv-decoration-1" d="M87.9100037,150 L90.9100037,160.8 L84.9100037,160.8 L87.9100037,150 Z" stroke="#01689B" stroke-width="4"></path>
                <polyline id="from-nhr-to-brv" stroke="#01689B" stroke-width="4" points="312 150 312 254.019775 426.031006 254.019775 426.031006 432"></polyline>
                <path id="from-nhr-to-brv-decoration-1" d="M312,150 L315,160.8 L309,160.8 L312,150 Z" stroke="#01689B" stroke-width="4"></path>
                <polyline id="from-nhr-to-brv" stroke="#01689B" stroke-width="4" points="465 150 465 254.019775 426.031006 254.019775 426.031006 432"></polyline>
                <path id="from-nhr-to-brv-decoration-1" d="M465,150 L468,160.8 L462,160.8 L465,150 Z" stroke="#01689B" stroke-width="4"></path>
                <polyline id="from-nhr-to-brv-copy" stroke="#01689B" stroke-width="4" points="496 254.019775 426.031006 254.019775 426.031006 432"></polyline>
                <path id="from-nhr-to-brv-copy-decoration-1" d="M496,254.019775 L485.2,257.019775 L485.2,251.019775 L496,254.019775 Z" stroke="#01689B" stroke-width="4"></path>
                <polyline id="from-nhr-to-brv-copy-2" stroke="#01689B" stroke-width="4" points="722 317.019775 426.031006 317.019775 426.031006 432"></polyline>
                <path id="from-nhr-to-brv-copy-2-decoration-1" d="M722,317.019775 L711.2,320.019775 L711.2,314.019775 L722,317.019775 Z" stroke="#01689B" stroke-width="4"></path>
                <path d="M340,440 L192,439.96875" id="x-copy" stroke="#01689B" stroke-width="4"></path>
                <path id="x-copy-decoration-1" d="M340,440 L329.199367,442.99772 L329.200634,436.99772 L340,440 Z" stroke="#01689B" stroke-width="4"></path>
                <polyline id="x-copy-2" stroke="#01689B" stroke-width="4" points="337.599609 470.999452 56 471 56.6992188 434.359375"></polyline>
                <path id="x-copy-2-decoration-1" d="M337.599609,470.999452 L326.799615,473.999473 L326.799604,467.999473 L337.599609,470.999452 Z" stroke="#01689B" stroke-width="4"></path>
            </g>
            <g id="woz">
                <g id="background" stroke="#979797" stroke-width="2">
                    <use id="Rectangle" mask="url(#mask-24)" xlink:href="#path-23"></use>
                </g>
                <polyline id="Line-Copy" stroke="#01689B" stroke-width="4" points="500 194.237641 56 194.237641 56 428"></polyline>
                <path id="Line-Copy-decoration-1" d="M500,194.237641 L489.2,197.237641 L489.2,191.237641 L500,194.237641 Z" stroke="#01689B" stroke-width="4"></path>
                <polyline id="Line-Copy-2" stroke="#01689B" stroke-width="4" points="500 215.237641 200.435902 215.237641 200.435902 424"></polyline>
                <path id="Line-Copy-2-decoration-1" d="M500,215.237641 L489.2,218.237641 L489.2,212.237641 L500,215.237641 Z" stroke="#01689B" stroke-width="4"></path>
                <polyline id="from-nhr-to-brv-copy-3" stroke="#01689B" stroke-width="4" points="496 254.019775 426.031006 254.019775 426.031006 432"></polyline>
                <path id="from-nhr-to-brv-copy-3-decoration-1" d="M496,254.019775 L485.2,257.019775 L485.2,251.019775 L496,254.019775 Z" stroke="#01689B" stroke-width="4"></path>
                <polyline id="from-nhr-to-brv-copy-4" stroke="#01689B" stroke-width="4" points="496 254.019775 426.031006 254.019775 313.031006 254.162109 313.031006 424.845215 243.793457 424.845215"></polyline>
                <path id="from-nhr-to-brv-copy-4-decoration-1" d="M496,254.019775 L485.2,257.019775 L485.2,251.019775 L496,254.019775 Z" stroke="#01689B" stroke-width="4"></path>
                <path d="M570,171.03125 L570,120" id="x" stroke="#01689B" stroke-width="4"></path>
                <path id="x-decoration-1" d="M570,171.03125 L567,160.23125 L573,160.23125 L570,171.03125 Z" stroke="#01689B" stroke-width="4"></path>
                <polyline id="x-copy-3" stroke="#01689B" stroke-width="4" points="641 235 694 235 694.296875 381.328125"></polyline>
                <path id="x-copy-3-decoration-1" d="M641,235 L651.8,232 L651.8,238 L641,235 Z" stroke="#01689B" stroke-width="4"></path>
            </g>
        </g>
    </g>
</svg>